<svg height="511pt" viewBox="-55 0 511 511.85258" width="511pt" xmlns="http://www.w3.org/2000/svg"><path d="m375.894531 281.453125v187.734375c.613281 18.207031-13.625 33.472656-31.832031 34.132812h-175.273438c-18.207031-.660156-32.445312-15.925781-31.828124-34.132812v-187.734375zm0 0" fill="#354aa3"/><path d="m350.292969 281.453125v187.734375c.613281 18.207031-13.625 33.472656-31.828125 34.132812h-149.675782c-18.207031-.660156-32.445312-15.925781-31.828124-34.132812v-187.734375zm0 0" fill="#5068c1"/><path d="m392.960938 264.386719c-.070313 9.394531-7.671876 16.996093-17.066407 17.066406h-238.933593c-9.414063-.027344-17.039063-7.652344-17.066407-17.066406.066407-9.398438 7.667969-16.996094 17.066407-17.066407h238.933593c9.414063.027344 17.035157 7.652344 17.066407 17.066407zm0 0" fill="#008ac7"/><path d="m367.359375 264.386719c-.070313 9.394531-7.667969 16.996093-17.066406 17.066406h-213.332031c-9.414063-.027344-17.039063-7.652344-17.066407-17.066406.066407-9.398438 7.667969-16.996094 17.066407-17.066407h213.332031c9.414062.027344 17.039062 7.652344 17.066406 17.066407zm0 0" fill="#00b7f6"/><path d="m13.957031 230.609375 217.222657-217.222656c6.664062-6.667969 17.472656-6.667969 24.136718 0 6.664063 6.664062 6.664063 17.46875 0 24.132812l-217.222656 217.226563c-6.664062 6.664062-17.472656 6.664062-24.136719 0-6.664062-6.667969-6.664062-17.472656 0-24.136719zm0 0" fill="#00b7f6"/><path d="m290.558594 189.035156v24.152344c-8.019532 4.089844-16.675782 6.804688-25.597656 8.019531-7.105469.839844-14.296876.609375-21.335938-.683593-7.417969-1.441407-14.597656-3.910157-21.332031-7.335938v-24.152344c-.011719-2.648437 1.035156-5.195312 2.910156-7.070312s4.421875-2.921875 7.074219-2.914063h48.296875c2.652343-.007812 5.199219 1.039063 7.074219 2.914063s2.921874 4.421875 2.910156 7.070312zm0 0" fill="#e15919"/><g fill="#f88f00"><path d="m290.558594 213.1875v34.132812h-68.265625v-34.132812c6.734375 3.425781 13.914062 5.894531 21.332031 7.335938 7.039062 1.292968 14.230469 1.523437 21.335938.683593 8.921874-1.214843 17.578124-3.929687 25.597656-8.019531zm0 0"/><path d="m282.027344 170.519531v8.53125h-51.199219v-8.53125c0-14.140625 11.460937-25.601562 25.597656-25.601562 14.140625 0 25.601563 11.460937 25.601563 25.601562zm0 0"/><path d="m264.960938 189.035156v24.152344c-6.734376 3.425781-13.917969 5.894531-21.335938 7.335938-7.035156 1.292968-14.226562 1.523437-21.332031.683593v-32.171875c-.011719-2.648437 1.035156-5.195312 2.910156-7.070312s4.421875-2.921875 7.074219-2.914063h22.699218c2.652344-.007812 5.195313 1.039063 7.070313 2.914063s2.925781 4.421875 2.914063 7.070312zm0 0"/></g><path d="m264.960938 213.1875v34.132812h-42.667969v-26.113281c7.105469.839844 14.296875.609375 21.332031-.683593 7.417969-1.441407 14.601562-3.910157 21.335938-7.335938zm0 0" fill="#ffc900"/><path d="m256.425781 170.519531v8.53125h-25.597656v-8.53125c-.007813-9.152343 4.871094-17.609375 12.796875-22.1875 7.925781 4.578125 12.808594 13.035157 12.800781 22.1875zm0 0" fill="#ffc900"/><path d="m.425781 242.675781c.003907 10.355469 6.238281 19.6875 15.804688 23.648438 9.566406 3.960937 20.574219 1.769531 27.894531-5.546875l217.226562-217.226563c9.855469-10.019531 9.789063-26.117187-.152343-36.054687-9.941407-9.9375-26.035157-10.003906-36.054688-.144532l-66.375 66.375-6.03125-6.035156c-13.515625-12.878906-34.757812-12.878906-48.273437 0l-36.199219 36.199219c-13.304687 13.34375-13.304687 34.9375 0 48.28125l6.035156 6.035156-66.375 66.363281c-4.816406 4.792969-7.515625 11.3125-7.5 18.105469zm79.90625-102.570312c-3.203125-3.199219-5.003906-7.542969-5.003906-12.074219 0-4.527344 1.800781-8.871094 5.003906-12.074219l36.199219-36.199219c3.199219-3.203124 7.542969-5 12.070312-5 4.527344 0 8.871094 1.796876 12.070313 5l6.03125 6.035157-60.335937 60.339843zm-60.339843 96.539062 217.226562-217.226562c2.140625-2.214844 5.3125-3.105469 8.296875-2.324219s5.3125 3.109375 6.09375 6.09375-.105469 6.15625-2.324219 8.296875l-217.226562 217.226563c-3.371094 3.234374-8.695313 3.234374-12.066406 0-3.332032-3.332032-3.332032-8.734376 0-12.066407zm0 0"/><path d="m171.09375 477.71875c4.710938 0 8.53125-3.820312 8.53125-8.53125v-153.601562c0-4.710938-3.820312-8.535157-8.53125-8.535157-4.714844 0-8.535156 3.824219-8.535156 8.535157v153.601562c0 4.710938 3.820312 8.53125 8.535156 8.53125zm0 0"/><path d="m213.757812 477.71875c4.714844 0 8.535157-3.820312 8.535157-8.53125v-153.601562c0-4.710938-3.820313-8.535157-8.535157-8.535157-4.710937 0-8.53125 3.824219-8.53125 8.535157v153.601562c0 4.710938 3.820313 8.53125 8.53125 8.53125zm0 0"/><path d="m256.425781 477.71875c4.714844 0 8.535157-3.820312 8.535157-8.53125v-153.601562c0-4.710938-3.820313-8.535157-8.535157-8.535157-4.710937 0-8.53125 3.824219-8.53125 8.535157v153.601562c0 4.710938 3.820313 8.53125 8.53125 8.53125zm0 0"/><path d="m299.09375 477.71875c4.710938 0 8.53125-3.820312 8.53125-8.53125v-153.601562c0-4.710938-3.820312-8.535157-8.53125-8.535157-4.714844 0-8.535156 3.824219-8.535156 8.535157v153.601562c0 4.710938 3.820312 8.53125 8.535156 8.53125zm0 0"/><path d="m341.757812 477.71875c4.714844 0 8.535157-3.820312 8.535157-8.53125v-153.601562c0-4.710938-3.820313-8.535157-8.535157-8.535157-4.710937 0-8.53125 3.824219-8.53125 8.535157v153.601562c0 4.710938 3.820313 8.53125 8.53125 8.53125zm0 0"/><path d="m168.816406 511.851562h175.222656c22.914063-.671874 40.96875-19.75 40.386719-42.664062v-180.773438c11.746094-4.136718 18.796875-16.140624 16.6875-28.414062-2.109375-12.277344-12.765625-21.238281-25.21875-21.214844h-57.175781l-19.625-13.097656v-3.96875h17.066406c4.710938 0 8.53125-3.820312 8.53125-8.53125 0-4.714844-3.820312-8.535156-8.53125-8.535156h-17.066406v-3.96875l17.996094-11.996094c4.75-3.164062 7.601562-8.492188 7.601562-14.199219v-29.570312c0-4.710938-3.820312-8.53125-8.53125-8.53125-4.714844 0-8.535156 3.820312-8.535156 8.53125v29.570312l-10.238281 6.824219c-1.484375-3.203125-3.855469-5.921875-6.828125-7.832031v-2.960938c0-18.851562-15.28125-34.132812-34.132813-34.132812-18.851562 0-34.132812 15.28125-34.132812 34.132812v2.976563c-2.972657 1.910156-5.339844 4.628906-6.828125 7.835937l-10.238282-6.828125v-29.585937c0-4.710938-3.820312-8.53125-8.535156-8.53125-4.710937 0-8.53125 3.820312-8.53125 8.53125v29.570312c0 5.707031 2.855469 11.035157 7.601563 14.199219l17.996093 11.996094v3.96875h-17.066406c-4.710937 0-8.53125 3.820312-8.53125 8.535156 0 4.710938 3.820313 8.53125 8.53125 8.53125h17.066406v3.96875l-19.625 13.097656h-57.171874c-12.457032-.023437-23.109376 8.9375-25.21875 21.214844-2.113282 12.273438 4.9375 24.277344 16.683593 28.414062v180.773438c-.582031 22.914062 17.472657 41.992188 40.390625 42.664062zm198.542969-42.664062c.585937 13.492188-9.832031 24.925781-23.320313 25.597656h-175.222656c-13.492187-.671875-23.90625-12.105468-23.324218-25.597656v-179.203125h221.867187zm-85.332031-280.125v18.558594c-16.289063 7.289062-34.914063 7.289062-51.199219 0v-18.558594c-.003906-.390625.148437-.765625.425781-1.042969.273438-.277343.648438-.433593 1.039063-.433593h48.265625c.390625 0 .765625.15625 1.039062.433593.277344.277344.429688.652344.429688 1.042969zm-51.199219 36.785156c16.558594 5.882813 34.636719 5.882813 51.199219 0v12.9375h-51.199219zm25.597656-72.394531c9.425781 0 17.066407 7.640625 17.066407 17.066406h-34.132813c0-9.425781 7.640625-17.066406 17.066406-17.066406zm-119.464843 102.398437h238.933593c4.710938 0 8.53125 3.820313 8.53125 8.535157 0 4.710937-3.820312 8.53125-8.53125 8.53125h-238.933593c-4.714844 0-8.535157-3.820313-8.535157-8.53125 0-4.714844 3.820313-8.535157 8.535157-8.535157zm0 0"/></svg>