<svg id="Layer_5" enable-background="new 0 0 64 64" height="512" viewBox="0 0 64 64" width="512" xmlns="http://www.w3.org/2000/svg"><path d="m18 4v8c0 1.1-.9 2-2 2h-12c-1.1 0-2-.9-2-2v-8c0-1.1.9-2 2-2h12c1.1 0 2 .9 2 2z" fill="#69d6f4"/><circle cx="8" cy="8" fill="#fcd770" r="2"/><path d="m38 14h-12c-1.1 0-2-.9-2-2v-8c0-1.1.9-2 2-2h12c1.1 0 2 .9 2 2v8c0 1.1-.9 2-2 2z" fill="#f0d0b4"/><path d="m18 22v8.67.01c-.71.33-1.35.78-1.9 1.32h-12.1c-1.1 0-2-.9-2-2v-8c0-1.1.9-2 2-2h12c1.1 0 2 .9 2 2z" fill="#f0d0b4"/><path d="m62 22v8c0 1.1-.9 2-2 2h-12c-1.1 0-2-.9-2-2v-8c0-1.1.9-2 2-2h12c1.1 0 2 .9 2 2z" fill="#e6e9ed"/><circle cx="54" cy="26" fill="#ff826e" r="2"/><path d="m62 12c0 1.1-.9 2-2 2h-1l-1.27-5.09c-.21-.85-.71-1.58-1.37-2.1-.66-.51-1.48-.81-2.36-.81-1.76 0-3.3 1.2-3.73 2.91l-1.27 5.09h-1c-1.1 0-2-.9-2-2v-8c0-1.1.9-2 2-2h12c1.1 0 2 .9 2 2z" fill="#e6e9ed"/><path d="m57.73 8.91 1.27 5.09h-10l1.27-5.09c.43-1.71 1.97-2.91 3.73-2.91.88 0 1.7.3 2.36.81.66.52 1.16 1.25 1.37 2.1z" fill="#5cd6b3"/><path d="m40 22v8c0 1.1-.9 2-2 2h-1v-3.5c0-.69-.28-1.32-.73-1.77s-1.08-.73-1.77-.73c-1.38 0-2.5 1.12-2.5 2.5v3.5h-6.1c-.55-.54-1.19-.99-1.9-1.32v-.01-8.67c0-1.1.9-2 2-2h12c1.1 0 2 .9 2 2z" fill="#69d6f4"/><path d="m14 62h-5v-10c0-4.42 3.58-8 8-8h2.8l-.8 10 2 2 2-2-.8-10h1.8l4.5-.56c2-.25 3.5-1.95 3.5-3.97v-7.47-3.5c0-1.38 1.12-2.5 2.5-2.5.69 0 1.32.28 1.77.73s.73 1.08.73 1.77v3.5 8.93c0 3.48-2.56 6.44-6.01 6.93l-.99.14v14z" fill="#fcd770"/><path d="m19.8 44h1.2 1.2l.8 10-2 2-2-2z" fill="#ff826e"/><path d="m14.08 36h.45c2.94 0 5.84-.68 8.47-2l4.97 2.49c.02.17.03.34.03.51 0 3.87-3.13 7-7 7s-7-3.13-7-7c0-.34.02-.68.08-1z" fill="#f0d0b4"/><path d="m27.97 36.49-4.97-2.49c-2.63 1.32-5.53 2-8.47 2h-.45c.21-1.56.95-2.95 2.02-4 .55-.54 1.19-.99 1.9-1.32.91-.44 1.92-.68 3-.68s2.09.24 3 .68c.71.33 1.35.78 1.9 1.32 1.18 1.16 1.96 2.74 2.07 4.49z" fill="#656d78"/><path d="m60 1h-12c-1.654 0-3 1.346-3 3v8c0 1.654 1.346 3 3 3h12c1.654 0 3-1.346 3-3v-8c0-1.654-1.346-3-3-3zm-9.72 12 .962-3.847c.318-1.268 1.451-2.153 2.758-2.153s2.44.885 2.758 2.153l.962 3.847zm10.72-1c0 .551-.448 1-1 1h-.22l-1.083-4.332c-.539-2.16-2.471-3.668-4.697-3.668s-4.158 1.508-4.697 3.668l-1.083 4.332h-.22c-.552 0-1-.449-1-1v-8c0-.551.448-1 1-1h12c.552 0 1 .449 1 1z"/><path d="m38 1h-12c-1.654 0-3 1.346-3 3v8c0 1.654 1.346 3 3 3h12c1.654 0 3-1.346 3-3v-8c0-1.654-1.346-3-3-3zm1 11c0 .551-.448 1-1 1h-12c-.552 0-1-.449-1-1v-8c0-.551.448-1 1-1h12c.552 0 1 .449 1 1z"/><path d="m4 15h12c1.654 0 3-1.346 3-3v-8c0-1.654-1.346-3-3-3h-12c-1.654 0-3 1.346-3 3v8c0 1.654 1.346 3 3 3zm-1-11c0-.551.448-1 1-1h12c.552 0 1 .449 1 1v8c0 .551-.448 1-1 1h-12c-.552 0-1-.449-1-1z"/><path d="m60 19h-12c-1.654 0-3 1.346-3 3v8c0 1.654 1.346 3 3 3h12c1.654 0 3-1.346 3-3v-8c0-1.654-1.346-3-3-3zm1 11c0 .551-.448 1-1 1h-12c-.552 0-1-.449-1-1v-8c0-.551.448-1 1-1h12c.552 0 1 .449 1 1z"/><path d="m38 19h-12c-1.654 0-3 1.346-3 3v7.263c-.641-.166-1.308-.263-2-.263s-1.359.097-2 .263v-7.263c0-1.654-1.346-3-3-3h-12c-1.654 0-3 1.346-3 3v8c0 1.654 1.346 3 3 3h10.082c-.684 1.178-1.082 2.542-1.082 4 0 2.436 1.098 4.618 2.821 6.086-4.406.581-7.821 4.352-7.821 8.914v11h23v-14.133l.132-.019c3.915-.56 6.868-3.964 6.868-7.92v-7.928c1.654 0 3-1.346 3-3v-8c0-1.654-1.346-3-3-3zm-11.486 15.639-3.514-1.757-.447.224c-2.231 1.115-4.702 1.753-7.194 1.87.833-2.314 3.044-3.976 5.641-3.976 2.47 0 4.595 1.501 5.514 3.639zm-4.547 18.98-.967.967-.967-.967.69-8.619h.554zm7.033-16.619c0-1.458-.398-2.822-1.082-4h3.082v6.469c0 1.51-1.13 2.789-2.628 2.977l-1.726.216c1.453-1.45 2.354-3.453 2.354-5.662zm-26-7v-8c0-.551.448-1 1-1h12c.552 0 1 .449 1 1v8.082c-.455.264-.881.572-1.274.918h-11.726c-.552 0-1-.449-1-1zm12 7c0-.004.001-.009.001-.013 2.753-.066 5.497-.704 7.992-1.873l4.001 2c-.062 3.256-2.724 5.886-5.994 5.886-3.309 0-6-2.691-6-6zm21 3.929c0 2.967-2.215 5.521-5.151 5.939l-1.849.265v13.867h-14v-12h-2v12h-3v-9c0-3.859 3.141-7 7-7h1.716l-.75 9.381 3.034 3.033 3.033-3.033-.749-9.381h.716l4.62-.57c2.497-.312 4.38-2.444 4.38-4.961v-10.969c0-.827.673-1.5 1.5-1.5s1.5.673 1.5 1.5zm3-10.929c0 .551-.448 1-1 1v-2.5c0-1.93-1.57-3.5-3.5-3.5s-3.5 1.57-3.5 3.5v2.5h-4.726c-.393-.346-.818-.653-1.274-.918v-8.082c0-.551.448-1 1-1h12c.552 0 1 .449 1 1z"/><path d="m5 23h10v2h-10z"/><path d="m13 27h2v2h-2z"/><path d="m5 27h6v2h-6z"/><path d="m54 23c-1.654 0-3 1.346-3 3s1.346 3 3 3 3-1.346 3-3-1.346-3-3-3zm0 4c-.552 0-1-.449-1-1s.448-1 1-1 1 .449 1 1-.448 1-1 1z"/><path d="m27 5h2v6h-2z"/><path d="m31 9h2v2h-2z"/><path d="m35 7h2v4h-2z"/><path d="m8 11c1.654 0 3-1.346 3-3s-1.346-3-3-3-3 1.346-3 3 1.346 3 3 3zm0-4c.552 0 1 .449 1 1s-.448 1-1 1-1-.449-1-1 .448-1 1-1z"/><path d="m13 5h2v2h-2z"/><path d="m13 9h2v2h-2z"/></svg>