<svg id="Layer_3" enable-background="new 0 0 64 64" height="512" viewBox="0 0 64 64" width="512" xmlns="http://www.w3.org/2000/svg"><g><g><path d="m32 49c-5.523 0-10-4.477-10-10v-14c0-5.523 4.477-10 10-10 5.523 0 10 4.477 10 10v14c0 5.523-4.477 10-10 10z" fill="#4d5d7a"/></g><g><path d="m33 12h-2l-1-10h4z" fill="#f5b953"/></g><g><path d="m31 52h2l1 10h-4z" fill="#f5b953"/></g><g><path d="m12 31v2l-10 1v-4z" fill="#f5b953"/></g><g><path d="m52 33v-2l10-1v4z" fill="#f5b953"/></g><g><path d="m39 27h-2v-2c0-2.757-2.243-5-5-5h-3v-2h3c3.859 0 7 3.141 7 7z"/></g><g><path d="m36 42h-4v-2h4c.552 0 1-.448 1-1v-10h2v10c0 1.654-1.346 3-3 3z"/></g><g><path d="m29 30h2v9h-2z"/></g><g><path d="m29 26h2v2h-2z"/></g><g><path d="m35 46h-3c-3.859 0-7-3.141-7-7v-3h2v3c0 2.757 2.243 5 5 5h3z"/></g><g><path d="m35 38h-2v-13c0-.552-.448-1-1-1h-4c-.552 0-1 .448-1 1v9h-2v-9c0-1.654 1.346-3 3-3h4c1.654 0 3 1.346 3 3z"/></g><g><path d="m42.084 43.4-1.832-.8c.496-1.137.748-2.348.748-3.6v-14c0-4.264-3.027-7.973-7.199-8.819l.398-1.961c5.1 1.036 8.801 5.569 8.801 10.78v14c0 1.529-.308 3.01-.916 4.4z"/></g><g><path d="m23 33h-2v-8c0-6.065 4.935-11 11-11v2c-4.963 0-9 4.037-9 9z"/></g><g><path d="m21 35h2v2h-2z"/></g><g><path d="m32 50c-6.065 0-11-4.935-11-11h2c0 4.963 4.037 9 9 9 .604 0 1.211-.061 1.802-.181l.396 1.961c-.721.146-1.461.22-2.198.22z"/></g><g><path d="m36.4 49.084-.8-1.832c1.422-.622 2.667-1.608 3.602-2.853l1.6 1.201c-1.143 1.52-2.664 2.725-4.402 3.484z"/></g><g><path d="m33 13h-2c-.514 0-.944-.39-.995-.9l-1-10c-.028-.281.064-.562.254-.771.189-.21.459-.329.741-.329h4c.282 0 .552.119.741.329.189.209.282.489.254.771l-1 10c-.051.51-.481.9-.995.9zm-1.095-2h.189l.8-8h-1.789z"/></g><g><path d="m34 63h-4c-.282 0-.552-.119-.741-.329-.189-.209-.282-.489-.254-.771l1-10c.051-.51.481-.9.995-.9h2c.514 0 .944.39.995.9l1 10c.028.281-.064.562-.254.771-.189.21-.459.329-.741.329zm-2.895-2h1.789l-.8-8h-.189z"/></g><g><path d="m2 35c-.247 0-.486-.092-.671-.259-.21-.189-.329-.459-.329-.741v-4c0-.282.119-.552.329-.741s.491-.277.771-.254l10 1c.51.051.9.481.9.995v2c0 .514-.39.944-.9.995l-10 1c-.034.003-.067.005-.1.005zm1-3.895v1.789l8-.8v-.189z"/></g><g><path d="m62 35c-.033 0-.066-.002-.1-.005l-10-1c-.51-.051-.9-.481-.9-.995v-2c0-.514.39-.944.9-.995l10-1c.281-.022.562.064.771.254.21.189.329.459.329.741v4c0 .282-.119.552-.329.741-.185.167-.424.259-.671.259zm-9-2.905 8 .8v-1.789l-8 .8z"/></g><g><path d="m5 30h-2v-12c0-8.271 6.729-15 15-15h12v2h-12c-7.168 0-13 5.832-13 13z"/></g><g><path d="m61 30h-2v-12c0-7.168-5.832-13-13-13h-12v-2h12c8.271 0 15 6.729 15 15z"/></g><g><path d="m46 61h-12v-2h12c7.168 0 13-5.832 13-13v-12h2v12c0 8.271-6.729 15-15 15z"/></g><g><path d="m30 61h-12c-8.271 0-15-6.729-15-15v-12h2v12c0 7.168 5.832 13 13 13h12z"/></g><g><path d="m54.98 31.041c-.474-11.569-9.529-21.011-21.062-21.962l.164-1.994c12.538 1.035 22.381 11.298 22.897 23.874z"/></g><g><path d="m33.041 56.979-.082-1.998c11.862-.486 21.535-10.159 22.021-22.021l1.998.082c-.528 12.894-11.042 23.408-23.937 23.937z"/></g><g><path d="m30.959 56.979c-12.895-.529-23.409-11.043-23.938-23.938l1.998-.082c.487 11.862 10.16 21.535 22.022 22.021z"/></g><g><path d="m9.02 31.041-1.998-.082c.528-12.895 11.042-23.409 23.937-23.938l.082 1.998c-11.862.487-21.535 10.16-22.021 22.022z"/></g></g></svg>