<svg height="512pt" viewBox="0 0 512 512" width="512pt" xmlns="http://www.w3.org/2000/svg"><path d="m51.199219 8.535156h221.867187c18.851563 0 34.132813 15.28125 34.132813 34.132813v426.664062c0 18.851563-15.28125 34.132813-34.132813 34.132813h-221.867187c-18.851563 0-34.132813-15.28125-34.132813-34.132813v-426.664062c0-18.851563 15.28125-34.132813 34.132813-34.132813zm0 0" fill="#728f9c"/><path d="m17.066406 76.800781h290.132813v358.398438h-290.132813zm0 0" fill="#00939f"/><path d="m307.199219 76.800781v129.109375c-149.160157-15.445312-240.128907 44.03125-290.132813 96.683594v-225.792969zm0 0" fill="#00c6db"/><path d="m443.734375 332.800781c0 23.5625-19.105469 42.664063-42.667969 42.664063-4.335937-.011719-8.644531-.644532-12.800781-1.875-17.78125-5.632813-29.867187-22.136719-29.867187-40.789063 0-18.65625 12.085937-35.15625 29.867187-40.789062 4.15625-1.234375 8.464844-1.863281 12.800781-1.878907 23.5625 0 42.667969 19.101563 42.667969 42.667969zm0 0" fill="#354aa3"/><path d="m418.132812 332.800781c0-22.527343-13.371093-40.789062-29.867187-40.789062-16.492187 0-29.867187 18.261719-29.867187 40.789062 0 22.527344 13.375 40.789063 29.867187 40.789063 16.496094 0 29.867187-18.261719 29.867187-40.789063zm0 0" fill="#5068c1"/><path d="m494.933594 264.535156c0 14.136719-11.460938 25.597656-25.601563 25.597656-14.136719 0-25.597656-11.460937-25.597656-25.597656 0-14.140625 11.460937-25.601562 25.597656-25.601562 14.140625 0 25.601563 11.460937 25.601563 25.601562zm0 0" fill="#354aa3"/><path d="m469.332031 264.535156c.007813 9.148438-4.871093 17.609375-12.796875 22.183594-7.9375-4.566406-12.832031-13.027344-12.832031-22.183594 0-9.160156 4.894531-17.621094 12.832031-22.1875 7.925782 4.574219 12.804688 13.035156 12.796875 22.1875zm0 0" fill="#5068c1"/><g fill="#ef3a76"><path d="m187.734375 375.464844c0 14.140625-11.460937 25.601562-25.601563 25.601562-14.136718 0-25.597656-11.460937-25.597656-25.601562 0-14.136719 11.460938-25.597656 25.597656-25.597656 14.140626 0 25.601563 11.460937 25.601563 25.597656zm0 0"/><path d="m273.066406 375.464844c0 14.140625-11.460937 25.601562-25.601562 25.601562-14.136719 0-25.597656-11.460937-25.597656-25.601562 0-14.136719 11.460937-25.597656 25.597656-25.597656 14.140625 0 25.601562 11.460937 25.601562 25.597656zm0 0"/><path d="m187.734375 256c0 14.136719-11.460937 25.601562-25.601563 25.601562-14.136718 0-25.597656-11.464843-25.597656-25.601562s11.460938-25.601562 25.597656-25.601562c14.140626 0 25.601563 11.464843 25.601563 25.601562zm0 0"/><path d="m187.734375 136.535156c0 14.136719-11.460937 25.597656-25.601563 25.597656-14.136718 0-25.597656-11.460937-25.597656-25.597656 0-14.140625 11.460938-25.601562 25.597656-25.601562 14.140626 0 25.601563 11.460937 25.601563 25.601562zm0 0"/><path d="m102.398438 136.535156c0 14.136719-11.460938 25.597656-25.597657 25.597656-14.140625 0-25.601562-11.460937-25.601562-25.597656 0-14.140625 11.460937-25.601562 25.601562-25.601562 14.136719 0 25.597657 11.460937 25.597657 25.601562zm0 0"/></g><path d="m196.265625 469.332031c0 18.851563-15.28125 34.132813-34.132813 34.132813-18.851562 0-34.132812-15.28125-34.132812-34.132813 0-18.851562 15.28125-34.132812 34.132812-34.132812 18.851563 0 34.132813 15.28125 34.132813 34.132812zm0 0" fill="#475962"/><path d="m477.867188 52.652344v49.746094c0 18.851562-15.28125 34.136718-34.132813 34.136718-4.371094.03125-8.699219-.839844-12.714844-2.5625 0 .085938-.171875 0-.171875 0-.132812 0-.257812-.066406-.339844-.171875-1.28125-.59375-2.5625-1.191406-3.753906-1.875-.136718-.003906-.261718-.066406-.34375-.171875-1.429687-.839844-2.800781-1.78125-4.09375-2.816406-.085937-.085938-.171875-.167969-.257812-.167969-1.171875-.988281-2.28125-2.042969-3.328125-3.160156l-.253907-.253906c-.949218-1.054688-1.835937-2.167969-2.648437-3.328125-.777344-1.09375-1.492187-2.234375-2.132813-3.414063-.503906-.972656-.960937-1.96875-1.363281-2.988281-1.390625-3.195312-2.253906-6.59375-2.5625-10.066406 0-.171875-.085937-.34375-.085937-.511719-.082032-.855469-.082032-1.792969-.082032-2.648437v-49.746094c-.011718-2.652344 1.035157-5.199219 2.910157-7.074219s4.421875-2.921875 7.074219-2.910156h-1.453126v-8.535157c0-14.136718 11.460938-25.597656 25.601563-25.597656 14.136719 0 25.597656 11.460938 25.597656 25.597656v8.535157h-1.195312c.433593.011719.863281.070312 1.28125.167969.855469.097656 1.691406.328124 2.476562.683593 3.625 1.589844 5.96875 5.171875 5.972657 9.132813zm0 0" fill="#4fba6f"/><path d="m477.867188 52.652344v24.148437c-8.023438 4.09375-16.675782 6.804688-25.601563 8.019531-7.105469.839844-14.296875.609376-21.332031-.683593-7.417969-1.441407-14.597656-3.910157-21.332032-7.335938v-24.148437c-.011718-2.652344 1.035157-5.199219 2.910157-7.074219s4.421875-2.921875 7.074219-2.910156h48.550781c.433593.011719.863281.070312 1.28125.167969.855469.097656 1.691406.328124 2.476562.683593 3.625 1.589844 5.96875 5.171875 5.972657 9.132813zm0 0" fill="#388c41"/><path d="m477.867188 76.800781v25.597657c0 18.851562-15.28125 34.136718-34.132813 34.136718-4.371094.03125-8.699219-.839844-12.714844-2.5625 0 .085938-.171875 0-.171875 0-.132812 0-.257812-.066406-.339844-.171875-1.28125-.59375-2.5625-1.191406-3.753906-1.875-.136718-.003906-.261718-.066406-.34375-.171875-1.429687-.839844-2.800781-1.78125-4.09375-2.816406-.085937-.085938-.171875-.167969-.257812-.167969-1.171875-.988281-2.28125-2.042969-3.328125-3.160156l-.253907-.253906c-.949218-1.054688-1.835937-2.167969-2.648437-3.328125-.777344-1.09375-1.492187-2.234375-2.132813-3.414063-.503906-.972656-.960937-1.96875-1.363281-2.988281-1.390625-3.195312-2.253906-6.59375-2.5625-10.066406 0-.171875-.085937-.34375-.085937-.511719-.082032-.855469-.082032-1.792969-.082032-2.648437v-25.597657c6.734376 3.425781 13.914063 5.894531 21.332032 7.335938 7.035156 1.292969 14.226562 1.523437 21.332031.683593 8.925781-1.214843 17.578125-3.925781 25.601563-8.019531zm0 0" fill="#66993e"/><path d="m469.332031 34.132812v8.535157h-51.199219v-8.535157c0-14.136718 11.460938-25.597656 25.601563-25.597656 14.136719 0 25.597656 11.460938 25.597656 25.597656zm0 0" fill="#66993e"/><path d="m452.265625 52.652344v49.746094c.027344 4.554687-.902344 9.058593-2.730469 13.226562-.402344 1.019531-.859375 2.015625-1.363281 2.988281-.644531 1.179688-1.355469 2.320313-2.132813 3.414063-.816406 1.160156-1.699218 2.273437-2.648437 3.328125l-.253906.253906c-1.046875 1.117187-2.160157 2.171875-3.328125 3.160156-.085938 0-.171875.082031-.257813.167969-1.296875 1.035156-2.664062 1.976562-4.09375 2.816406-1.3125.785156-2.683593 1.46875-4.097656 2.046875-.082031.105469-.207031.171875-.339844.171875 0 .085938-.171875 0-.171875 0-.132812 0-.257812-.066406-.339844-.171875-1.28125-.59375-2.5625-1.191406-3.753906-1.875-.136718-.003906-.261718-.066406-.34375-.171875-1.429687-.839844-2.800781-1.78125-4.09375-2.816406-.085937-.085938-.171875-.167969-.257812-.167969-1.171875-.988281-2.28125-2.042969-3.328125-3.160156l-.253907-.253906c-.949218-1.054688-1.835937-2.167969-2.648437-3.328125-.777344-1.09375-1.492187-2.234375-2.132813-3.414063-.503906-.972656-.960937-1.96875-1.363281-2.988281-1.390625-3.195312-2.253906-6.59375-2.5625-10.066406 0-.171875-.085937-.34375-.085937-.511719-.082032-.855469-.082032-1.792969-.082032-2.648437v-49.746094c-.011718-2.652344 1.035157-5.199219 2.910157-7.074219s4.421875-2.921875 7.074219-2.910156h-1.453126v-8.535157c-.003906-9.152343 4.875-17.609374 12.800782-22.1875 7.925781 4.578126 12.804687 13.035157 12.800781 22.1875v8.535157h-1.453125c2.652344-.011719 5.199219 1.035156 7.074219 2.910156s2.921875 4.421875 2.910156 7.074219zm0 0" fill="#4fba6f"/><path d="m452.265625 52.652344v24.148437c-1.449219.683594-2.816406 1.363281-4.265625 1.960938-1.449219.597656-2.902344 1.195312-4.265625 1.707031-1.167969.503906-2.363281.929688-3.585937 1.28125-3.015626.996094-6.09375 1.792969-9.214844 2.386719-2.144532.410156-4.308594.695312-6.484375.855469-2.097657.238281-4.207031.351562-6.316407.339843-2.851562 0-5.699218-.171875-8.53125-.511719v-32.167968c-.011718-2.652344 1.035157-5.199219 2.910157-7.074219s4.421875-2.921875 7.074219-2.910156h22.695312c2.652344-.011719 5.199219 1.035156 7.074219 2.910156s2.921875 4.421875 2.910156 7.074219zm0 0" fill="#5ab862"/><path d="m452.265625 76.800781v25.597657c.027344 4.554687-.902344 9.058593-2.730469 13.226562-.402344 1.019531-.859375 2.015625-1.363281 2.988281-.644531 1.179688-1.355469 2.320313-2.132813 3.414063-.816406 1.160156-1.699218 2.273437-2.648437 3.328125l-.253906.253906c-1.046875 1.117187-2.160157 2.171875-3.328125 3.160156-.085938 0-.171875.082031-.257813.167969-1.296875 1.035156-2.664062 1.976562-4.09375 2.816406-1.3125.785156-2.683593 1.46875-4.097656 2.046875-.082031.105469-.207031.171875-.339844.171875 0 .085938-.171875 0-.171875 0-.132812 0-.257812-.066406-.339844-.171875-1.28125-.59375-2.5625-1.191406-3.753906-1.875-.136718-.003906-.261718-.066406-.34375-.171875-1.429687-.839844-2.800781-1.78125-4.09375-2.816406-.085937-.085938-.171875-.167969-.257812-.167969-1.171875-.988281-2.28125-2.042969-3.328125-3.160156l-.253907-.253906c-.949218-1.054688-1.835937-2.167969-2.648437-3.328125-.777344-1.09375-1.492187-2.234375-2.132813-3.414063-.503906-.972656-.960937-1.96875-1.363281-2.988281-1.390625-3.195312-2.253906-6.59375-2.5625-10.066406 0-.171875-.085937-.34375-.085937-.511719-.082032-.855469-.082032-1.792969-.082032-2.648437v-17.578126c2.832032.339844 5.679688.511719 8.53125.511719 2.109376.015625 4.21875-.097656 6.316407-.339843 2.132812-.171876 4.351562-.511719 6.484375-.855469 3.121094-.59375 6.199218-1.390625 9.214844-2.386719 1.222656-.351562 2.417968-.777344 3.585937-1.28125 1.457031-.472656 2.882813-1.042969 4.265625-1.707031 1.449219-.597657 2.816406-1.277344 4.265625-1.960938zm0 0" fill="#9aca5c"/><path d="m443.734375 34.132812v8.535157h-25.601563v-8.535157c-.003906-9.152343 4.875-17.609374 12.800782-22.1875 7.925781 4.578126 12.804687 13.035157 12.800781 22.1875zm0 0" fill="#9aca5c"/><path d="m170.667969 42.667969c0 4.710937-3.820313 8.53125-8.535157 8.53125-4.710937 0-8.53125-3.820313-8.53125-8.53125 0-4.714844 3.820313-8.535157 8.53125-8.535157 4.714844 0 8.535157 3.820313 8.535157 8.535157zm0 0"/><path d="m170.667969 375.464844c0 4.714844-3.820313 8.535156-8.535157 8.535156-4.710937 0-8.53125-3.820312-8.53125-8.535156 0-4.710938 3.820313-8.53125 8.53125-8.53125 4.714844 0 8.535157 3.820312 8.535157 8.53125zm0 0"/><path d="m256 375.464844c0 4.714844-3.820312 8.535156-8.535156 8.535156-4.710938 0-8.53125-3.820312-8.53125-8.535156 0-4.710938 3.820312-8.53125 8.53125-8.53125 4.714844 0 8.535156 3.820312 8.535156 8.53125zm0 0"/><path d="m170.667969 256c0 4.710938-3.820313 8.535156-8.535157 8.535156-4.710937 0-8.53125-3.824218-8.53125-8.535156s3.820313-8.535156 8.53125-8.535156c4.714844 0 8.535157 3.824218 8.535157 8.535156zm0 0"/><path d="m477.867188 264.535156c0 4.710938-3.820313 8.53125-8.535157 8.53125-4.710937 0-8.53125-3.820312-8.53125-8.53125 0-4.714844 3.820313-8.535156 8.53125-8.535156 4.714844 0 8.535157 3.820312 8.535157 8.535156zm0 0"/><path d="m409.601562 332.800781c0 4.710938-3.820312 8.53125-8.535156 8.53125-4.710937 0-8.53125-3.820312-8.53125-8.53125 0-4.714843 3.820313-8.535156 8.53125-8.535156 4.714844 0 8.535156 3.820313 8.535156 8.535156zm0 0"/><path d="m170.667969 136.535156c0 4.710938-3.820313 8.53125-8.535157 8.53125-4.710937 0-8.53125-3.820312-8.53125-8.53125 0-4.714844 3.820313-8.535156 8.53125-8.535156 4.714844 0 8.535157 3.820312 8.535157 8.535156zm0 0"/><path d="m85.332031 136.535156c0 4.710938-3.820312 8.53125-8.53125 8.53125-4.714843 0-8.535156-3.820312-8.535156-8.53125 0-4.714844 3.820313-8.535156 8.535156-8.535156 4.710938 0 8.53125 3.820312 8.53125 8.535156zm0 0"/><path d="m8.535156 204.800781v264.53125c.027344 23.554688 19.113282 42.640625 42.664063 42.667969h221.867187c23.550782-.027344 42.640625-19.113281 42.667969-42.667969v-426.664062c-.027344-23.554688-19.117187-42.6406252-42.667969-42.667969h-221.867187c-23.550781.0273438-42.636719 19.113281-42.664063 42.667969v42.664062c-4.714844 0-8.535156 3.820313-8.535156 8.535157v34.132812c0 4.710938 3.820312 8.535156 8.535156 8.535156v17.066406c-4.714844 0-8.535156 3.820313-8.535156 8.53125v34.132813c0 2.265625.898438 4.433594 2.5 6.035156 1.601562 1.601563 3.769531 2.5 6.035156 2.5zm290.132813 221.867188h-273.066407v-341.335938h273.066407zm-110.933594 42.664062c0 14.140625-11.460937 25.601563-25.601563 25.601563-14.136718 0-25.597656-11.460938-25.597656-25.601563 0-14.136719 11.460938-25.597656 25.597656-25.597656 14.140626 0 25.601563 11.460937 25.601563 25.597656zm-162.132813 0v-25.597656h102.621094c-11.671875 15.070313-11.671875 36.128906 0 51.199219h-77.023437c-14.136719 0-25.597657-11.460938-25.597657-25.601563zm247.464844 25.601563h-77.023437c11.671875-15.070313 11.671875-36.128906 0-51.199219h102.625v25.597656c0 14.140625-11.460938 25.601563-25.601563 25.601563zm-221.867187-477.867188h221.867187c14.140625 0 25.601563 11.460938 25.601563 25.601563v25.597656h-273.066407v-25.597656c0-14.140625 11.460938-25.601563 25.597657-25.601563zm0 0"/><path d="m76.800781 170.667969c15.515625-.058594 29.042969-10.578125 32.921875-25.601563h19.488282c3.109374 11.949219 12.441406 21.28125 24.390624 24.386719v53.625c-12.28125 3.109375-21.820312 12.78125-24.757812 25.105469-2.9375 12.324218 1.210938 25.257812 10.769531 33.574218 9.558594 8.3125 22.941407 10.632813 34.738281 6.019532l47.0625 65.894531c-3.234374 3.859375-5.566406 8.386719-6.828124 13.261719h-19.53125c-4.296876-16.644532-20.296876-27.492188-37.351563-25.328125-17.050781 2.164062-29.832031 16.671875-29.832031 33.859375 0 17.191406 12.78125 31.699218 29.832031 33.863281 17.054687 2.164063 33.054687-8.683594 37.351563-25.328125h19.492187c3.503906 13.796875 15.179687 23.984375 29.324219 25.585938 14.144531 1.601562 27.808594-5.714844 34.308594-18.378907 6.503906-12.660156 4.492187-28.027343-5.050782-38.589843-9.542968-10.5625-24.625-14.117188-37.882812-8.929688l-47.058594-65.894531c7.589844-8.898438 10.039062-21.09375 6.472656-32.234375s-12.644531-19.644532-23.992187-22.480469v-53.625c16.105469-4.125 26.878906-19.273437 25.488281-35.84375-1.386719-16.566406-14.53125-29.710937-31.101562-31.097656-16.566407-1.390625-31.714844 9.382812-35.84375 25.488281h-19.488282c-4.464844-17.132812-21.304687-27.988281-38.753906-24.988281-17.445312 3.003906-29.6875 18.867187-28.167969 36.507812 1.519531 17.636719 16.296875 31.171875 34 31.148438zm85.332031 221.867187c-9.425781 0-17.066406-7.644531-17.066406-17.070312 0-9.425782 7.640625-17.066406 17.066406-17.066406 9.425782 0 17.066407 7.640624 17.066407 17.066406 0 9.425781-7.640625 17.070312-17.066407 17.070312zm102.402344-17.070312c0 9.425781-7.644531 17.070312-17.070312 17.070312-9.425782 0-17.066406-7.644531-17.066406-17.070312 0-9.425782 7.640624-17.066406 17.066406-17.066406 9.425781 0 17.070312 7.640624 17.070312 17.066406zm-85.335937-119.464844c0 9.425781-7.640625 17.066406-17.066407 17.066406-9.425781 0-17.066406-7.640625-17.066406-17.066406s7.640625-17.066406 17.066406-17.066406c9.425782 0 17.066407 7.640625 17.066407 17.066406zm-17.066407-136.535156c9.425782 0 17.066407 7.644531 17.066407 17.070312 0 9.425782-7.640625 17.066406-17.066407 17.066406-9.425781 0-17.066406-7.640624-17.066406-17.066406 0-9.425781 7.640625-17.070312 17.066406-17.070312zm-85.332031 0c9.425781 0 17.066407 7.644531 17.066407 17.070312 0 9.425782-7.640626 17.066406-17.066407 17.066406s-17.066406-7.640624-17.066406-17.066406c0-9.425781 7.640625-17.070312 17.066406-17.070312zm0 0"/><path d="m503.464844 0c-4.710938 0-8.53125 3.820312-8.53125 8.535156v29.566406l-10.242188 6.828126c-1.484375-3.207032-3.851562-5.925782-6.824218-7.835938v-2.960938c0-18.851562-15.28125-34.132812-34.132813-34.132812s-34.132813 15.28125-34.132813 34.132812v2.980469c-2.976562 1.910157-5.34375 4.625-6.828124 7.832031l-10.238282-6.828124v-29.582032c0-4.714844-3.824218-8.535156-8.535156-8.535156s-8.535156 3.820312-8.535156 8.535156v29.566406c.003906 5.707032 2.855468 11.035157 7.605468 14.199219l17.996094 11.996094v3.96875h-17.066406c-4.710938 0-8.535156 3.820313-8.535156 8.535156 0 4.710938 3.824218 8.53125 8.535156 8.53125h17.066406v3.96875l-17.996094 12c-4.75 3.164063-7.601562 8.492188-7.605468 14.199219v29.566406c0 4.714844 3.824218 8.535156 8.535156 8.535156s8.535156-3.820312 8.535156-8.535156v-29.566406l9.230469-6.152344c2.859375 17.417969 16.148437 31.277344 33.433594 34.867188v9.386718c0 4.710938 3.820312 8.53125 8.535156 8.53125 4.710937 0 8.53125-3.820312 8.53125-8.53125v-9.386718c17.28125-3.585938 30.574219-17.445313 33.433594-34.859375l9.234375 6.144531v29.566406c0 4.714844 3.820312 8.535156 8.53125 8.535156 4.714844 0 8.535156-3.820312 8.535156-8.535156v-29.566406c0-5.707031-2.855469-11.035156-7.601562-14.199219l-18-12v-3.96875h17.066406c4.714844 0 8.535156-3.820312 8.535156-8.53125 0-4.714843-3.820312-8.535156-8.535156-8.535156h-17.066406v-3.96875l18-11.996094c4.746093-3.164062 7.601562-8.492187 7.601562-14.199219v-29.566406c0-4.714844-3.820312-8.535156-8.535156-8.535156zm-85.332032 52.675781c0-.390625.152344-.769531.429688-1.046875s.65625-.429687 1.046875-.429687h48.246094c.394531 0 .769531.152343 1.046875.429687s.433594.65625.429687 1.046875v18.558594c-16.289062 7.289063-34.910156 7.289063-51.199219 0zm25.601563-35.609375c9.425781 0 17.066406 7.640625 17.066406 17.066406h-34.132812c0-9.425781 7.640625-17.066406 17.066406-17.066406zm0 110.933594c-14.140625 0-25.601563-11.460938-25.601563-25.601562v-12.933594c16.558594 5.878906 34.640626 5.878906 51.199219 0v12.933594c0 6.792968-2.695312 13.300781-7.496093 18.101562-4.800782 4.804688-11.3125 7.5-18.101563 7.5zm0 0"/><path d="m503.464844 256h-1.210938c-.792968-3.054688-2.011718-5.984375-3.625-8.695312l.851563-.851563c2.21875-2.144531 3.109375-5.316406 2.328125-8.300781s-3.109375-5.3125-6.09375-6.09375-6.15625.109375-8.300782 2.328125l-.851562.851562c-2.714844-1.613281-5.640625-2.835937-8.695312-3.625v-1.214843c0-4.710938-3.820313-8.53125-8.535157-8.53125-4.710937 0-8.53125 3.820312-8.53125 8.53125v1.214843c-3.054687.789063-5.984375 2.011719-8.695312 3.625l-.855469-.851562c-2.140625-2.21875-5.3125-3.109375-8.296875-2.328125s-5.3125 3.109375-6.09375 6.09375.105469 6.15625 2.324219 8.300781l.855468.851563c-1.613281 2.710937-2.835937 5.640624-3.628906 8.695312h-1.210937c-4.710938 0-8.53125 3.820312-8.53125 8.535156 0 4.710938 3.820312 8.53125 8.53125 8.53125h1.210937c.792969 3.054688 2.015625 5.984375 3.628906 8.695313l-.855468.855469c-.28125.355468-.535156.738281-.757813 1.132812-.398437.222656-.777343.476562-1.136719.761719l-6.585937 6.585937c-6.28125-4.472656-13.5-7.457031-21.101563-8.730468v-9.300782c0-4.710937-3.820312-8.53125-8.535156-8.53125-4.710937 0-8.53125 3.820313-8.53125 8.53125v9.300782c-7.601562 1.28125-14.8125 4.273437-21.085937 8.746093l-6.589844-6.585937c-2.140625-2.21875-5.316406-3.109375-8.296875-2.328125-2.984375.78125-5.316406 3.113281-6.097656 6.09375-.777344 2.984375.109375 6.15625 2.328125 8.300781l6.589843 6.585938c-4.476562 6.277343-7.46875 13.488281-8.75 21.085937h-9.300781c-4.710937 0-8.53125 3.820313-8.53125 8.535156 0 4.710938 3.820313 8.53125 8.53125 8.53125h9.300781c1.28125 7.601563 4.273438 14.8125 8.75 21.085938l-6.589843 6.589843c-2.21875 2.140626-3.105469 5.3125-2.328125 8.296876.78125 2.984374 3.113281 5.316406 6.097656 6.09375 2.980469.78125 6.15625-.105469 8.296875-2.324219l6.589844-6.589844c6.273437 4.476563 13.484375 7.464844 21.085937 8.746094v9.304687c0 4.710938 3.820313 8.53125 8.53125 8.53125 4.714844 0 8.535156-3.820312 8.535156-8.53125v-9.304687c7.597657-1.28125 14.808594-4.269531 21.085938-8.746094l6.585938 6.589844c2.144531 2.21875 5.316406 3.105469 8.300781 2.324219 2.980469-.777344 5.3125-3.109376 6.09375-6.09375.78125-2.984376-.109375-6.15625-2.328125-8.296876l-6.585938-6.589843c4.472656-6.273438 7.464844-13.484375 8.746094-21.085938h9.300781c4.710938 0 8.53125-3.820312 8.53125-8.53125 0-4.714843-3.820312-8.535156-8.53125-8.535156h-9.300781c-1.28125-7.597656-4.273438-14.808594-8.746094-21.085937l6.585938-6.585938c.285156-.355469.539062-.738281.757812-1.136719.398438-.222656.777344-.476562 1.136719-.757812l.851563-.855469c2.71875 1.609375 5.652343 2.824219 8.714843 3.609375v1.214844c0 4.710937 3.820313 8.53125 8.53125 8.53125 4.714844 0 8.535157-3.820313 8.535157-8.53125v-1.214844c3.054687-.789063 5.980468-2.011719 8.695312-3.625l.851562.851563c2.144532 2.21875 5.316407 3.109374 8.300782 2.328124s5.3125-3.109374 6.09375-6.09375c.78125-2.984374-.109375-6.15625-2.328125-8.296874l-.851563-.855469c1.613282-2.710938 2.832032-5.640625 3.625-8.695313h1.210938c4.714844 0 8.535156-3.820312 8.535156-8.53125 0-4.714844-3.820312-8.535156-8.535156-8.535156zm-34.132813 25.601562c-9.425781 0-17.066406-7.640624-17.066406-17.066406 0-9.425781 7.640625-17.070312 17.066406-17.070312s17.066407 7.644531 17.066407 17.070312c0 9.425782-7.640626 17.066406-17.066407 17.066406zm-68.265625 85.332032c-18.851562 0-34.132812-15.28125-34.132812-34.132813 0-18.851562 15.28125-34.132812 34.132812-34.132812 18.851563 0 34.132813 15.28125 34.132813 34.132812 0 18.851563-15.28125 34.132813-34.132813 34.132813zm0 0"/><path d="m443.734375 213.332031c4.710937 0 8.53125-3.820312 8.53125-8.53125v-17.066406c0-4.714844-3.820313-8.535156-8.53125-8.535156-4.714844 0-8.535156 3.820312-8.535156 8.535156v17.066406c0 4.710938 3.820312 8.53125 8.535156 8.53125zm0 0"/><path d="m443.734375 435.199219c4.710937 0 8.53125-3.820313 8.53125-8.53125v-17.066407c0-4.714843-3.820313-8.535156-8.53125-8.535156-4.714844 0-8.535156 3.820313-8.535156 8.535156v17.066407c0 4.710937 3.820312 8.53125 8.535156 8.53125zm0 0"/><path d="m426.667969 469.332031c-4.714844 0-8.535157 3.820313-8.535157 8.535157 0 4.710937 3.820313 8.53125 8.535157 8.53125 14.136719 0 25.597656-11.460938 25.597656-25.597657 0-4.714843-3.820313-8.535156-8.53125-8.535156-4.714844 0-8.535156 3.820313-8.535156 8.535156 0 4.710938-3.820313 8.53125-8.53125 8.53125zm0 0"/><path d="m372.964844 446.234375c-3.332032-3.332031-8.730469-3.332031-12.066406 0l-25.597657 25.597656c-.796875.796875-1.425781 1.742188-1.851562 2.785157-.863281 2.085937-.863281 4.429687 0 6.519531.425781 1.039062 1.054687 1.984375 1.851562 2.78125l25.597657 25.597656c3.351562 3.234375 8.671874 3.1875 11.964843-.101563 3.289063-3.292968 3.335938-8.613281.101563-11.964843l-11.03125-11.050781h30.601562c4.710938 0 8.53125-3.820313 8.53125-8.53125 0-4.714844-3.820312-8.535157-8.53125-8.535157h-30.601562l11.03125-11.03125c3.332031-3.332031 3.332031-8.734375 0-12.066406zm0 0"/></svg>