<?xml version="1.0" encoding="iso-8859-1"?>
<!-- Generator: Adobe Illustrator 19.0.0, SVG Export Plug-In . SVG Version: 6.00 Build 0)  -->
<svg version="1.1" id="Capa_1" xmlns="http://www.w3.org/2000/svg" xmlns:xlink="http://www.w3.org/1999/xlink" x="0px" y="0px"
	 viewBox="0 0 512 512" style="enable-background:new 0 0 512 512;" xml:space="preserve">
<circle style="fill:#FF0000;" cx="256" cy="256" r="256"/>
<path d="M456.56,389.36V118.008c0-6.488-5.304-11.8-11.8-11.8H67.312c-6.488,0-11.8,5.304-11.8,11.8V389.36
	C55.512,389.36,457.544,389.36,456.56,389.36z"/>
<rect x="70.264" y="120.96" width="371.52" height="253.656"/>
<rect x="20" y="389.36" style="fill:#D8D8D8;" width="471.912" height="7.368"/>
<polygon style="fill:#AAAAAA;" points="468.408,411.488 43.68,411.488 20.088,396.736 492,396.736 "/>
<g style="opacity:0.7;">
	<path style="fill:#FFFFFF;" d="M295.632,389.36h-79.344c0.752,4.136,4.44,7.368,9.064,7.368h61.208
		C291.184,396.736,294.88,393.504,295.632,389.36z"/>
</g>
<rect x="100.88" y="197.312" style="fill:#CCCCCC;" width="21.592" height="97.424"/>
<rect x="136.88" y="235.88" style="fill:#FFFFFF;" width="21.592" height="59.064"/>
<rect x="172.864" y="203.056" style="fill:#CCCCCC;" width="21.592" height="91.888"/>
<rect x="208.88" y="143.992" style="fill:#FFFFFF;" width="21.592" height="150.952"/>
<rect x="244.848" y="174.44" style="fill:#CCCCCC;" width="21.592" height="120.48"/>
<rect x="280.8" y="222.752" style="fill:#FFFFFF;" width="21.592" height="72.16"/>
<g style="opacity:0.5;">
	<path style="fill:#FFFFFF;" d="M266.072,328.944h-8v-8h8V328.944z M250.072,328.944h-8v-8h8V328.944z M234.072,328.944h-8v-8h8
		V328.944z M218.072,328.944h-8v-8h8V328.944z M202.072,328.944h-8v-8h8V328.944z M186.072,328.944h-8v-8h8V328.944z
		 M170.072,328.944h-8v-8h8V328.944z"/>
</g>
<g style="opacity:0.5;">
	<path style="fill:#FFFFFF;" d="M194.08,175.992h-8v-8h8V175.992z M178.08,175.992h-8v-8h8V175.992z M162.08,175.992h-8v-8h8
		V175.992z M146.08,175.992h-8v-8h8V175.992z M130.08,175.992h-8v-8h8V175.992z M114.08,175.992h-8v-8h8V175.992z M98.08,175.992h-8
		v-8h8V175.992z"/>
</g>
<g style="opacity:0.5;">
	<path style="fill:#FFFFFF;" d="M421.92,276.408h-7.096v-8h7.096V276.408z M406.832,276.408h-8v-8h8V276.408z M390.832,276.408h-8
		v-8h8V276.408z M374.832,276.408h-8v-8h8V276.408z M358.832,276.408h-8v-8h8V276.408z M342.832,276.408h-8v-8h8V276.408z"/>
</g>
<g style="opacity:0.5;">
	<path style="fill:#FFFFFF;" d="M373.36,353.872h-8v-8h8V353.872z M357.36,353.872h-8v-8h8V353.872z M341.36,353.872h-8v-8h8
		V353.872z M325.36,353.872h-8v-8h8V353.872z M309.36,353.872h-8v-8h8V353.872z M293.36,353.872h-8v-8h8V353.872z M277.36,353.872
		h-8v-8h8V353.872z M261.36,353.872h-8v-8h8V353.872z M245.36,353.872h-8v-8h8V353.872z M229.36,353.872h-8v-8h8V353.872z
		 M213.36,353.872h-8v-8h8V353.872z"/>
</g>
<path style="fill:#CCCCCC;" d="M380.096,11.432c-33.232,34.92-88.424,27.032-88.424,27.032s0,38.864,0,94.624
	s88.424,94.624,88.424,94.624s88.424-38.864,88.424-94.624s0-94.624,0-94.624S413.328,46.352,380.096,11.432z"/>
<g style="opacity:0.2;">
	<path d="M380.096,42.56c-23.664,24.872-62.976,19.256-62.976,19.256s0,27.672,0,67.384s62.976,67.384,62.976,67.384
		s62.976-27.672,62.976-67.384s0-67.384,0-67.384S403.76,67.424,380.096,42.56z"/>
</g>
<g style="opacity:0.25;">
	<path style="fill:#FFFFFF;" d="M380.096,11.432c-33.232,34.92-88.424,27.032-88.424,27.032v71.184l176.856-55.856V38.464
		C468.52,38.464,413.328,46.352,380.096,11.432z"/>
</g>
<path style="fill:#FFFFFF;" d="M403.616,114.776h-7.624V87.312c0.088-8.776-6.96-15.968-15.736-16.048
	c-8.776-0.088-15.968,6.96-16.048,15.736c0,0.104,0,0.208,0,0.312v27.464h-7.624V87.312c-0.104-12.992,10.336-23.6,23.328-23.704
	s23.6,10.336,23.704,23.328c0,0.128,0,0.256,0,0.376L403.616,114.776L403.616,114.776z"/>
<g style="opacity:0.25;">
	<rect x="396" y="106.728" width="7.624" height="3.048"/>
</g>
<g style="opacity:0.25;">
	<rect x="356.576" y="106.728" width="7.624" height="3.048"/>
</g>
<rect x="349.528" y="109.776" width="61.136" height="38.824"/>
<rect x="346" y="148.6" width="68.176" height="12.704"/>
<g>
	<circle style="fill:#FFFFFF;" cx="380.08" cy="130.056" r="7.632"/>
	<rect x="376.8" y="134.16" style="fill:#FFFFFF;" width="6.504" height="13.936"/>
</g>
<g>
</g>
<g>
</g>
<g>
</g>
<g>
</g>
<g>
</g>
<g>
</g>
<g>
</g>
<g>
</g>
<g>
</g>
<g>
</g>
<g>
</g>
<g>
</g>
<g>
</g>
<g>
</g>
<g>
</g>
</svg>
