<svg height="512" viewBox="0 0 192 192" width="512" xmlns="http://www.w3.org/2000/svg" xmlns:xlink="http://www.w3.org/1999/xlink"><linearGradient id="New_Gradient_Swatch_1" gradientUnits="userSpaceOnUse" x1="32.343" x2="159.656" y1="131.657" y2="4.344"><stop offset="0" stop-color="#34cdfa"/><stop offset="1" stop-color="#e8d9f1"/></linearGradient><path d="m96 8c-24 16-72 16-72 16v88l72 72 72-72v-88s-48 0-72-16z" fill="#e6f9fe"/><path d="m48 104v-81.622a225.067 225.067 0 0 1 -24 1.622v88l72 72 16-16z" fill="#ccf2fe"/><path d="m168 16c-.456 0-45.885-.2-67.565-14.656a8 8 0 0 0 -8.875 0c-21.678 14.456-67.107 14.656-67.56 14.656a8 8 0 0 0 -8 8v88a8 8 0 0 0 2.343 5.657l72 72a8 8 0 0 0 11.314 0l72-72a8 8 0 0 0 2.343-5.657v-88a8 8 0 0 0 -8-8zm-8 92.686-64 64-64-64v-76.923c14.182-.7 43.972-3.475 64-14.43 20.028 10.955 49.818 13.73 64 14.43z" fill="url(#New_Gradient_Swatch_1)"/><circle cx="96" cy="128" fill="#67d9fb" r="16"/><path d="m124.284 83.716a40 40 0 0 0 -56.568 0l-11.316-11.316a56 56 0 0 1 79.2 0z" fill="#67d9fb"/><path d="m141.256 66.746a64 64 0 0 0 -90.511 0l-11.313-11.314a80 80 0 0 1 113.136 0z" fill="#34cdfa"/><path d="m107.314 100.687a16 16 0 0 0 -22.628 0l-11.313-11.315a32 32 0 0 1 45.254 0z" fill="#99e6fd"/></svg>