<svg height="512" viewBox="0 0 192 192" width="512" xmlns="http://www.w3.org/2000/svg" xmlns:xlink="http://www.w3.org/1999/xlink"><linearGradient id="New_Gradient_Swatch_1" gradientUnits="userSpaceOnUse" x1="84" x2="148" y1="108" y2="44"><stop offset="0" stop-color="#34cdfa"/><stop offset="1" stop-color="#e8d9f1"/></linearGradient><linearGradient id="New_Gradient_Swatch_1-2" x1="86" x2="150" xlink:href="#New_Gradient_Swatch_1" y1="110" y2="46"/><rect fill="#e6f9fe" height="192" rx="16" width="112" x="32"/><path d="m56 176v-160a16.019 16.019 0 0 1 16-16h-24a16.019 16.019 0 0 0 -16 16v160a16.019 16.019 0 0 0 16 16h24a16.019 16.019 0 0 1 -16-16z" fill="#ccf2fe"/><path d="m144 16a16.019 16.019 0 0 0 -16-16h-80a16.019 16.019 0 0 0 -16 16v144h112z" fill="#67d9fb"/><path d="m72 0h-24a16.019 16.019 0 0 0 -16 16v144h24v-144a16.019 16.019 0 0 1 16-16z" fill="#01c0f9"/><circle cx="88" cy="177" fill="#99e6fd" r="8"/><path d="m112 40c-16 8-40 8-40 8v48l40 32 40-32v-48s-24 0-40-8z" fill="#fff"/><path d="m152 80v-32s-24 0-40-8v40z" fill="url(#New_Gradient_Swatch_1)"/><path d="m72 80v16l40 32v-48z" fill="url(#New_Gradient_Swatch_1-2)"/><path d="m112 136a7.984 7.984 0 0 1 -5-1.753l-40-32a8 8 0 0 1 -3-6.247v-48a8 8 0 0 1 8-8c.216 0 22.345-.117 36.422-7.155a8 8 0 0 1 7.156 0c14.077 7.038 36.206 7.155 36.428 7.155a8.005 8.005 0 0 1 7.994 8v48a8 8 0 0 1 -3 6.247l-40 32a7.984 7.984 0 0 1 -5 1.753zm-32-43.845 32 25.6 32-25.6v-36.514c-8.133-.617-21.039-2.3-32-6.854-10.961 4.559-23.867 6.237-32 6.854z" fill="#ccf2fe"/></svg>